<?xml version="1.0" standalone="no"?>
<!DOCTYPE svg PUBLIC "-//W3C//DTD SVG 20010904//EN"
 "http://www.w3.org/TR/2001/REC-SVG-20010904/DTD/svg10.dtd">
<svg version="1.0" xmlns="http://www.w3.org/2000/svg"
 width="300.000000pt" height="300.000000pt" viewBox="0 0 300.000000 300.000000"
 preserveAspectRatio="xMidYMid meet">
<metadata>
Created by potrace 1.10, written by Peter Selinger 2001-2011
</metadata>
<g transform="translate(0.000000,300.000000) scale(0.100000,-0.100000)"
fill="#000000" stroke="none">
<path d="M1687 2434 c-4 -4 -6 -41 -5 -83 1 -64 2 -67 5 -21 5 82 10 100 29
93 14 -5 16 -18 11 -79 -3 -40 -3 -75 0 -78 3 -3 26 19 50 49 61 74 81 73 86
-2 l3 -58 2 57 c2 49 -1 59 -19 69 -19 10 -25 7 -48 -22 -14 -19 -35 -44 -46
-57 l-20 -24 3 76 c3 48 0 76 -6 76 -6 0 -17 2 -24 5 -8 3 -17 2 -21 -1z"/>
<path d="M1348 2384 c-3 -3 -20 -7 -38 -9 -43 -6 -45 -9 -32 -47 l12 -33 -5
32 c-3 22 0 33 12 37 9 4 19 2 23 -4 5 -7 11 -6 20 5 16 19 30 19 30 0 0 -8
-9 -19 -20 -25 -21 -11 -26 -50 -9 -85 6 -14 7 -8 3 22 -5 35 -2 44 15 55 23
14 29 58 8 58 -8 0 -16 -3 -19 -6z"/>
<path d="M1155 2330 c-12 -4 -26 -15 -33 -23 -10 -12 -4 -11 25 4 39 20 66 18
96 -9 9 -8 17 -11 17 -6 0 12 -53 44 -72 43 -7 0 -22 -4 -33 -9z"/>
<path d="M1903 2273 c-29 -31 -50 -60 -47 -63 3 -3 15 6 26 20 58 72 80 91 95
86 12 -5 8 -15 -23 -54 -71 -89 -94 -110 -116 -104 -19 5 -20 10 -14 79 3 40
2 73 -2 73 -8 0 -69 -70 -85 -96 -11 -20 -50 -2 -58 27 l-7 24 -1 -26 c-1 -19
6 -29 26 -38 26 -12 30 -10 73 39 l45 51 -3 -65 c-4 -63 -2 -66 22 -78 16 -7
30 -8 35 -2 49 53 131 155 131 162 0 9 -23 22 -38 22 -4 0 -30 -26 -59 -57z"/>
<path d="M1151 2286 c-7 -8 -11 -23 -8 -33 4 -15 5 -14 6 3 1 20 18 34 42 34
17 0 9 -19 -12 -25 -11 -4 -18 -9 -16 -11 8 -9 58 19 54 30 -6 17 -52 19 -66
2z"/>
<path d="M1296 2250 c3 -24 6 -46 8 -48 7 -6 56 10 56 19 0 6 -9 5 -21 -1 -25
-14 -26 -13 -39 36 l-10 39 6 -45z"/>
<path d="M1492 2281 c-18 -11 -12 -41 10 -55 14 -8 22 -7 35 7 29 29 -10 71
-45 48z m46 -22 c4 -19 -19 -31 -38 -19 -18 11 -4 42 17 38 10 -2 19 -10 21
-19z"/>
<path d="M1101 2247 l-1 -38 -29 22 c-32 24 -79 20 -103 -8 -11 -14 -9 -14 19
1 40 20 76 13 103 -21 11 -14 20 -23 20 -19 0 4 10 0 22 -8 34 -24 82 -20 117
10 17 14 31 29 31 34 0 17 -32 19 -55 4 -13 -9 -32 -14 -42 -11 -14 3 -12 6
11 16 16 6 26 14 24 17 -5 4 -53 -13 -68 -24 -8 -6 24 -22 44 -22 11 0 28 8
38 17 14 12 21 14 30 5 8 -8 2 -16 -23 -31 -66 -40 -118 -19 -130 51 l-6 43
-2 -38z"/>
<path d="M1960 2180 c-35 -37 -38 -71 -10 -110 22 -31 76 -58 90 -44 5 5 -2
10 -18 11 -29 1 -82 53 -82 79 0 27 33 72 57 79 70 17 126 -53 92 -116 -10
-19 -13 -18 -62 22 l-52 41 50 -46 50 -46 18 21 c40 49 4 125 -65 136 -33 5
-41 2 -68 -27z"/>
<path d="M917 2183 c-14 -17 -10 -25 49 -105 36 -49 68 -88 72 -88 4 0 16 7
26 15 18 14 18 16 3 33 -20 22 -22 42 -4 42 18 0 47 32 46 51 0 8 -5 4 -11 -8
-6 -12 -24 -26 -39 -32 -32 -11 -36 -23 -14 -41 18 -15 19 -36 2 -43 -19 -7
-138 154 -125 170 5 6 16 9 24 6 8 -3 14 0 14 6 0 17 -25 13 -43 -6z"/>
<path d="M980 2179 c-9 -16 -8 -26 5 -45 27 -41 85 -27 85 21 0 29 -19 45 -52
45 -17 0 -31 -7 -38 -21z m76 -15 c8 -31 -6 -47 -37 -42 -19 2 -25 10 -27 36
-3 30 -1 32 27 32 25 0 32 -5 37 -26z"/>
<path d="M2007 2163 c-8 -7 41 -63 55 -63 11 0 10 47 -1 54 -5 4 -7 -3 -4 -14
7 -25 -9 -26 -31 -1 -17 18 -17 19 1 24 14 4 14 5 2 6 -9 0 -19 -2 -22 -6z"/>
<path d="M2127 2068 c-47 -35 -87 -66 -87 -70 0 -14 62 -98 80 -108 10 -6 29
-10 42 -9 18 1 15 3 -9 9 -38 9 -63 27 -63 46 0 7 -10 22 -22 34 -25 23 -28
20 72 93 58 43 78 53 88 44 11 -9 8 -16 -17 -36 -31 -26 -31 -26 -11 -39 25
-15 43 -58 34 -84 -3 -10 -15 -28 -27 -38 -11 -11 -16 -20 -10 -20 15 0 41 32
48 61 7 30 -18 89 -38 89 -6 0 1 12 16 25 23 21 26 28 17 45 -6 11 -14 20 -18
20 -4 0 -47 -28 -95 -62z"/>
<path d="M815 2075 c-38 -37 -35 -95 7 -130 25 -21 38 -25 62 -21 35 7 76 42
76 65 0 10 -6 7 -17 -9 -24 -35 -33 -40 -75 -40 -29 0 -41 6 -54 25 -22 33
-13 89 18 115 13 11 19 19 15 20 -4 0 -19 -11 -32 -25z"/>
<path d="M925 2084 c11 -8 26 -29 33 -47 l12 -32 -6 30 c-6 32 -30 65 -48 65
-6 0 -2 -7 9 -16z"/>
<path d="M849 2052 c-42 -35 -3 -94 50 -77 25 8 36 42 20 61 -25 30 -46 35
-70 16z m60 -21 c13 -24 -8 -55 -34 -50 -23 5 -40 32 -32 53 9 22 54 20 66 -3z"/>
<path d="M2128 2009 c-22 -12 -23 -52 -2 -73 19 -20 24 -20 52 0 54 37 6 106
-50 73z m57 -34 c0 -27 -3 -30 -30 -30 -21 0 -31 5 -33 18 -5 25 17 49 42 45
16 -2 21 -10 21 -33z"/>
<path d="M670 1975 c-7 -14 -11 -27 -9 -28 2 -2 46 -27 97 -56 75 -42 96 -50
108 -40 8 6 14 17 14 24 0 9 -110 80 -191 121 -3 2 -12 -8 -19 -21z m104 -40
c42 -25 81 -45 87 -45 6 0 9 -8 7 -17 -5 -25 -24 -19 -117 33 -55 31 -78 50
-74 60 8 20 14 19 97 -31z"/>
<path d="M768 1835 c-4 -16 -9 -39 -12 -50 -4 -11 0 -7 7 9 12 24 15 26 21 11
3 -10 0 -28 -9 -41 -9 -13 -12 -24 -7 -24 10 0 32 45 32 65 0 8 5 15 11 15 7
0 10 -15 7 -39 -2 -22 0 -37 4 -35 5 3 8 23 8 46 0 38 -2 40 -24 34 -20 -5
-25 -2 -28 16 -3 20 -4 19 -10 -7z"/>
<path d="M2280 1813 c-52 -13 -98 -27 -101 -31 -4 -4 -3 -16 1 -27 8 -19 9
-19 9 1 1 18 12 25 69 39 37 9 79 21 93 25 24 7 26 5 37 -36 26 -98 10 -153
-52 -174 -57 -18 -102 11 -131 86 -15 38 -15 38 -10 6 7 -51 37 -84 101 -116
70 -34 84 -49 84 -91 0 -34 -14 -56 -45 -73 -15 -9 -16 -11 -4 -12 29 0 59 43
59 86 0 41 -30 84 -58 84 -22 0 -12 15 20 30 18 8 41 30 51 48 18 31 18 35 2
102 -9 39 -20 72 -24 74 -3 2 -49 -7 -101 -21z"/>
<path d="M708 1819 c-21 -12 -24 -52 -4 -68 11 -9 16 -5 25 20 19 56 14 69
-21 48z m16 -33 c-7 -30 -24 -35 -24 -8 0 18 20 45 27 38 2 -2 1 -15 -3 -30z"/>
<path d="M2344 1764 c24 -24 20 -80 -6 -98 -12 -9 -17 -16 -11 -16 22 0 43 32
43 65 0 44 -9 65 -27 65 -12 0 -12 -2 1 -16z"/>
<path d="M2258 1758 c-34 -9 -37 -12 -31 -36 8 -33 32 -72 45 -72 5 0 0 12
-11 26 -33 41 -27 62 19 74 22 6 40 13 40 15 0 7 -19 5 -62 -7z"/>
<path d="M660 1742 c0 -18 52 -52 80 -52 15 0 38 9 51 21 l24 21 -25 -16 c-37
-24 -77 -20 -105 10 -14 15 -25 22 -25 16z"/>
<path d="M630 1706 c0 -2 33 -23 73 -47 39 -23 76 -47 80 -53 6 -7 7 -6 4 4
-5 20 -157 113 -157 96z"/>
<path d="M621 1678 c-1 -10 17 -28 45 -44 33 -19 42 -29 32 -35 -9 -6 -6 -9
10 -9 35 0 22 20 -31 48 -25 14 -48 33 -50 41 -4 13 -5 13 -6 -1z"/>
<path d="M628 1583 c-18 -5 -27 -63 -9 -63 4 0 6 10 4 23 -4 20 1 25 29 34 32
11 12 16 -24 6z"/>
<path d="M770 1581 c0 -5 -24 -15 -52 -21 -29 -7 -60 -17 -68 -22 -16 -10 -16
-10 83 14 27 6 47 17 47 25 0 7 -2 13 -5 13 -3 0 -5 -4 -5 -9z"/>
<path d="M2241 1554 c-26 -33 -29 -105 -6 -124 12 -10 19 -10 27 -2 12 12 17
103 5 95 -5 -3 -7 -23 -5 -44 2 -24 -1 -40 -8 -43 -15 -6 -24 15 -24 54 0 43
10 61 44 76 26 11 27 13 9 14 -12 0 -31 -12 -42 -26z"/>
<path d="M2316 1533 c-3 -4 -6 -24 -6 -45 0 -27 4 -38 15 -38 19 0 38 36 30
59 -6 20 -29 34 -39 24z m29 -52 c-3 -12 -11 -21 -16 -21 -10 0 -12 21 -3 45
10 24 27 2 19 -24z"/>
<path d="M2293 1470 c0 -36 2 -50 4 -32 2 17 2 47 0 65 -2 17 -4 3 -4 -33z"/>
<path d="M658 1504 c-45 -24 -62 -79 -38 -125 11 -19 83 -59 108 -59 31 0 72
-36 91 -79 33 -78 32 -81 -29 -104 -30 -11 -50 -22 -43 -24 6 -2 25 3 42 11
16 9 37 16 45 16 25 0 28 19 10 68 -32 85 -69 121 -126 123 -22 0 -22 1 -3 9
16 6 13 8 -19 11 -81 8 -104 108 -33 142 l32 16 8 -59 c9 -63 16 -71 38 -44
10 12 10 22 2 44 -16 44 3 62 21 20 11 -26 15 -30 16 -14 0 11 -8 28 -19 38
-15 14 -20 14 -30 2 -9 -10 -9 -20 0 -39 8 -17 8 -30 1 -43 -8 -15 -11 -9 -17
31 -11 84 -12 84 -57 59z"/>
<path d="M662 1458 c-15 -15 -15 -51 0 -66 21 -21 28 -13 28 27 0 43 -10 57
-28 39z m18 -34 c0 -21 -4 -33 -10 -29 -17 10 -11 65 7 65 2 0 3 -16 3 -36z"/>
<path d="M2212 1385 c-15 -32 -15 -80 -2 -106 9 -16 7 -19 -13 -19 -33 0 -43
-36 -15 -51 11 -6 22 -8 25 -6 2 3 -5 8 -16 12 -13 4 -18 12 -14 21 6 15 23
15 68 0 13 -5 12 -2 -5 8 l-25 15 32 1 c27 0 34 6 50 40 10 22 21 40 26 40 10
0 9 -15 -4 -44 -9 -20 -9 -29 2 -42 12 -15 15 -14 31 6 10 12 18 32 17 44 -1
16 -4 13 -11 -11 -6 -18 -17 -33 -26 -33 -10 0 -12 5 -7 18 5 9 8 28 9 42 1
37 -23 31 -43 -10 -17 -37 -43 -49 -66 -30 -28 23 -11 120 21 120 8 0 14 -3
12 -7 -2 -5 -10 -20 -17 -35 -14 -28 -9 -58 9 -58 5 0 18 17 27 38 22 46 67
58 82 20 7 -17 10 -18 10 -6 1 10 -10 25 -23 33 -31 21 -57 6 -81 -44 -10 -20
-20 -30 -22 -24 -3 7 2 27 11 44 9 17 13 35 10 40 -11 18 -41 8 -52 -16z"/>
<path d="M645 1296 c-38 -38 -41 -71 -14 -148 25 -72 35 -79 79 -52 20 12 21
14 5 11 -11 -3 -27 -8 -36 -11 -12 -5 -20 4 -35 41 -29 75 -25 119 14 154 18
16 28 29 22 29 -6 0 -22 -11 -35 -24z"/>
<path d="M682 1264 c-12 -8 -22 -19 -22 -25 0 -5 9 0 20 11 36 36 89 21 106
-32 4 -15 1 -25 -12 -35 -13 -10 -14 -13 -3 -13 36 1 42 16 20 57 -28 55 -65
68 -109 37z"/>
<path d="M2298 1214 c37 -16 37 -17 16 -38 -8 -9 -11 -16 -5 -16 10 0 36 39
29 45 -12 10 -49 25 -60 24 -7 0 2 -7 20 -15z"/>
<path d="M2081 1184 c-38 -47 -46 -80 -27 -109 15 -23 99 -85 115 -85 5 0 14
-7 21 -15 7 -8 17 -12 22 -9 5 3 -8 15 -29 26 -89 47 -118 73 -121 105 -4 37
20 88 47 103 31 16 34 -6 6 -35 -18 -17 -25 -34 -23 -53 4 -34 33 -42 35 -10
1 13 14 33 28 46 14 12 22 22 17 22 -10 0 -45 -37 -60 -65 -11 -19 -11 -19
-12 4 0 14 11 37 25 51 16 17 23 33 19 43 -10 26 -30 20 -63 -19z"/>
<path d="M2352 1188 c-28 -28 -3 -66 33 -52 20 8 19 50 -1 58 -20 8 -18 8 -32
-6z m35 -32 c-4 -9 -11 -16 -17 -16 -17 0 -24 31 -9 41 18 11 34 -5 26 -25z"/>
<path d="M665 1177 c3 -10 5 -23 5 -28 0 -14 32 -10 60 7 24 15 21 15 -26 0
-15 -5 -24 0 -33 16 -7 14 -9 15 -6 5z"/>
<path d="M2244 1145 c33 -30 33 -65 1 -103 -14 -17 -25 -36 -25 -43 0 -7 3
-10 6 -6 3 3 4 7 3 9 -2 2 9 15 24 30 35 35 37 85 4 116 -13 12 -27 22 -32 22
-4 0 4 -11 19 -25z"/>
<path d="M2162 1118 c-35 -35 4 -101 47 -79 32 18 39 51 15 75 -18 19 -45 21
-62 4z m58 -13 c20 -24 3 -55 -31 -55 -25 0 -29 4 -29 29 0 39 36 55 60 26z"/>
<path d="M841 1034 c-18 -14 -31 -35 -31 -47 1 -18 3 -16 14 9 16 36 27 44 70
55 30 7 30 7 4 8 -15 1 -40 -10 -57 -25z"/>
<path d="M952 1017 c13 -17 31 -38 41 -46 17 -12 13 -19 -60 -86 -43 -40 -81
-71 -85 -68 -14 8 -8 33 12 50 22 20 26 33 8 33 -6 0 -9 -3 -5 -6 3 -3 -6 -17
-21 -29 l-27 -24 21 -21 20 -21 85 80 84 79 -32 32 c-18 18 -33 36 -33 40 0 4
-7 10 -15 14 -11 4 -8 -4 7 -27z"/>
<path d="M2037 1022 c-16 -17 -15 -20 19 -52 38 -38 42 -73 9 -78 -14 -2 -33
10 -54 34 l-33 36 -22 -21 -21 -22 47 -44 c60 -58 84 -58 143 -3 25 23 45 46
45 51 0 10 -100 117 -110 117 -4 0 -14 -8 -23 -18z m73 -44 c48 -55 55 -74 28
-72 -10 1 -18 -4 -18 -12 0 -22 -38 -54 -65 -54 -34 0 -109 78 -93 97 9 11 19
7 53 -27 46 -45 71 -46 81 -3 5 19 -1 32 -26 58 -20 21 -30 40 -27 49 10 24
18 20 67 -36z"/>
<path d="M874 997 c-25 -22 -27 -27 -16 -51 14 -32 51 -35 76 -7 22 24 18 49
-10 68 -20 13 -25 12 -50 -10z m64 -20 c5 -25 -16 -47 -44 -47 -27 0 -42 34
-23 56 17 20 63 14 67 -9z"/>
<path d="M1022 905 c6 -28 4 -29 -22 -15 -23 12 -40 -12 -40 -58 0 -39 49 -82
92 -82 35 0 88 48 88 80 0 50 -51 100 -102 100 -16 0 -19 -5 -16 -25z m79 -14
c36 -36 37 -73 4 -106 -49 -50 -135 -15 -135 55 0 44 24 48 75 11 27 -19 46
-27 50 -21 10 16 -23 60 -45 60 -11 0 -20 7 -20 15 0 25 40 17 71 -14z m-21
-31 c14 -26 -1 -26 -31 0 l-24 19 22 1 c12 0 27 -9 33 -20z"/>
<path d="M1000 832 c0 -24 19 -42 45 -42 36 0 36 12 3 37 -38 28 -48 29 -48 5z
m51 -30 c-19 -6 -41 6 -41 23 0 14 3 13 26 -2 15 -9 21 -19 15 -21z"/>
<path d="M1863 886 c-30 -14 -53 -42 -53 -65 0 -17 30 -13 57 9 28 22 43 25
43 10 0 -5 -18 -19 -39 -30 -53 -26 -57 -35 -27 -65 43 -43 113 -27 141 31 14
30 14 37 1 62 -28 54 -71 71 -123 48z m102 -29 c8 -12 15 -36 15 -53 0 -63
-86 -98 -131 -53 -24 24 -23 24 44 60 40 21 46 33 22 43 -17 6 -65 -13 -65
-26 0 -4 -7 -8 -15 -8 -21 0 -19 13 8 37 39 36 97 36 122 0z"/>
<path d="M1939 800 c-3 -18 -11 -26 -29 -28 l-25 -3 25 21 25 22 -32 -18 c-35
-19 -35 -34 1 -34 28 0 49 23 44 47 -4 14 -6 12 -9 -7z"/>
<path d="M1150 748 c-60 -91 -68 -108 -51 -108 5 0 16 -2 23 -5 10 -4 28 15
54 52 l39 58 5 -70 c4 -60 8 -70 25 -73 19 -4 19 -3 3 10 -13 10 -18 31 -20
88 l-3 75 -42 -58 c-23 -32 -44 -64 -45 -69 -3 -7 -10 -8 -20 -2 -15 8 -9 20
38 92 45 67 59 83 77 80 20 -3 22 -10 25 -75 2 -40 7 -73 11 -73 5 0 26 26 47
58 31 48 41 58 60 54 21 -4 23 -10 27 -81 l3 -76 2 78 c2 75 1 78 -24 87 -14
6 -27 10 -29 10 -2 0 -21 -26 -42 -57 l-38 -58 -5 69 c-5 66 -7 70 -32 77 -26
7 -31 2 -88 -83z"/>
<path d="M1747 828 c-15 -12 -15 -17 -2 -61 13 -45 13 -49 -5 -65 -22 -18 -24
-30 -11 -51 8 -12 12 -13 26 -1 9 7 28 15 42 16 14 2 28 5 31 9 8 8 -42 158
-54 162 -5 2 -17 -2 -27 -9z m53 -74 c19 -55 21 -67 9 -75 -8 -4 -18 -4 -23 1
-6 6 -14 3 -22 -8 -10 -13 -15 -14 -25 -5 -10 10 -7 16 11 31 23 18 23 19 7
67 -21 59 -21 55 1 55 13 0 24 -17 42 -66z"/>
<path d="M1551 772 c-15 -28 8 -57 38 -47 17 5 21 13 19 33 -4 34 -42 43 -57
14z m47 -15 c2 -12 -3 -17 -17 -17 -15 0 -21 6 -21 21 0 25 33 22 38 -4z"/>
<path d="M1344 718 c-4 -7 -23 -37 -41 -65 -45 -71 -33 -68 14 4 l38 57 6 -75
5 -74 2 77 c2 73 -8 103 -24 76z"/>
</g>
</svg>
