<svg width="4017" height="418" viewBox="0 0 4017 418" fill="none" xmlns="http://www.w3.org/2000/svg">
<g clipPath="url(#clip0_880_4509)">
<rect x="309" width="103" height="412" fill="currentColor"/>
<rect x="515" y="106" width="103" height="206" fill="currentColor"/>
<rect x="618" width="206" height="106" fill="currentColor"/>
<rect x="618" y="312" width="209" height="100" fill="currentColor"/>
<rect x="103" y="106" width="103" height="103" fill="currentColor"/>
<rect x="206" y="209" width="103" height="103" fill="currentColor"/>
<rect width="103" height="412" fill="currentColor"/>
<path d="M1362.35 4.32652V412H1334.76C1330.4 412 1326.7 411.241 1323.66 409.724C1320.82 408.207 1317.97 405.646 1315.13 402.043L1079.29 94.7942C1079.67 99.5357 1079.95 104.182 1080.14 108.734C1080.33 113.286 1080.42 117.553 1080.42 121.536V412H1032.06V4.32652H1060.51C1062.98 4.32652 1065.06 4.51618 1066.77 4.89549C1068.48 5.08516 1069.99 5.55931 1071.32 6.31794C1072.65 6.88692 1073.98 7.83523 1075.3 9.16286C1076.63 10.3008 1078.05 11.8181 1079.57 13.7147L1315.41 320.679C1315.03 315.748 1314.65 311.006 1314.28 306.454C1314.09 301.713 1313.99 297.256 1313.99 293.083V4.32652H1362.35ZM1602.48 282.273C1579.15 283.031 1559.23 284.928 1542.73 287.963C1526.42 290.807 1513.05 294.601 1502.62 299.342C1492.38 304.084 1484.89 309.679 1480.15 316.127C1475.59 322.575 1473.32 329.783 1473.32 337.748C1473.32 345.335 1474.55 351.878 1477.02 357.378C1479.48 362.878 1482.8 367.43 1486.97 371.034C1491.34 374.447 1496.36 377.008 1502.05 378.715C1507.93 380.232 1514.19 380.991 1520.83 380.991C1529.74 380.991 1537.9 380.137 1545.29 378.43C1552.69 376.534 1559.61 373.878 1566.06 370.465C1572.7 367.051 1578.96 362.973 1584.84 358.231C1590.91 353.49 1596.79 348.085 1602.48 342.016V282.273ZM1438.89 164.494C1454.83 149.132 1471.99 137.657 1490.39 130.071C1508.78 122.485 1529.17 118.691 1551.55 118.691C1567.67 118.691 1581.99 121.347 1594.51 126.657C1607.03 131.967 1617.55 139.364 1626.09 148.847C1634.62 158.33 1641.07 169.805 1645.43 183.27C1649.8 196.736 1651.98 211.53 1651.98 227.651V412H1629.5C1624.57 412 1620.78 411.241 1618.12 409.724C1615.47 408.017 1613.38 404.793 1611.86 400.051L1606.17 372.74C1598.59 379.758 1591.19 386.017 1583.98 391.517C1576.78 396.827 1569.19 401.379 1561.23 405.172C1553.26 408.776 1544.73 411.526 1535.62 413.422C1526.71 415.509 1516.75 416.552 1505.75 416.552C1494.56 416.552 1484.03 415.035 1474.17 412C1464.31 408.776 1455.68 404.034 1448.28 397.776C1441.08 391.517 1435.29 383.646 1430.93 374.163C1426.76 364.49 1424.67 353.111 1424.67 340.024C1424.67 328.645 1427.8 317.739 1434.06 307.308C1440.32 296.687 1450.46 287.299 1464.5 279.143C1478.53 270.988 1496.84 264.35 1519.41 259.229C1541.97 253.919 1569.67 250.884 1602.48 250.125V227.651C1602.48 205.271 1597.64 188.391 1587.97 177.012C1578.29 165.442 1564.17 159.658 1545.58 159.658C1533.06 159.658 1522.53 161.27 1514 164.494C1505.66 167.529 1498.35 171.037 1492.09 175.02C1486.03 178.813 1480.71 182.322 1476.16 185.546C1471.8 188.581 1467.44 190.098 1463.08 190.098C1459.66 190.098 1456.72 189.245 1454.26 187.538C1451.79 185.641 1449.71 183.365 1448 180.71L1438.89 164.494ZM1777.19 181.563C1786.3 161.839 1797.49 146.476 1810.76 135.476C1824.04 124.286 1840.25 118.691 1859.41 118.691C1865.48 118.691 1871.26 119.355 1876.76 120.683C1882.45 122.01 1887.48 124.097 1891.84 126.941L1888.14 164.779C1887.01 169.52 1884.16 171.891 1879.61 171.891C1876.95 171.891 1873.07 171.322 1867.95 170.184C1862.82 169.046 1857.04 168.477 1850.59 168.477C1841.49 168.477 1833.33 169.805 1826.13 172.46C1819.11 175.115 1812.75 179.098 1807.06 184.408C1801.56 189.529 1796.54 195.978 1791.99 203.754C1787.62 211.34 1783.64 220.064 1780.04 229.927V412H1729.11V123.812H1758.13C1763.63 123.812 1767.43 124.855 1769.51 126.941C1771.6 129.028 1773.02 132.631 1773.78 137.752L1777.19 181.563ZM2088.11 282.273C2064.78 283.031 2044.87 284.928 2028.37 287.963C2012.06 290.807 1998.68 294.601 1988.25 299.342C1978.01 304.084 1970.52 309.679 1965.78 316.127C1961.23 322.575 1958.95 329.783 1958.95 337.748C1958.95 345.335 1960.18 351.878 1962.65 357.378C1965.11 362.878 1968.43 367.43 1972.61 371.034C1976.97 374.447 1981.99 377.008 1987.68 378.715C1993.56 380.232 1999.82 380.991 2006.46 380.991C2015.37 380.991 2023.53 380.137 2030.93 378.43C2038.32 376.534 2045.25 373.878 2051.69 370.465C2058.33 367.051 2064.59 362.973 2070.47 358.231C2076.54 353.49 2082.42 348.085 2088.11 342.016V282.273ZM1924.53 164.494C1940.46 149.132 1957.62 137.657 1976.02 130.071C1994.42 122.485 2014.81 118.691 2037.19 118.691C2053.31 118.691 2067.63 121.347 2080.14 126.657C2092.66 131.967 2103.19 139.364 2111.72 148.847C2120.26 158.33 2126.7 169.805 2131.07 183.27C2135.43 196.736 2137.61 211.53 2137.61 227.651V412H2115.14C2110.2 412 2106.41 411.241 2103.76 409.724C2101.1 408.017 2099.01 404.793 2097.5 400.051L2091.81 372.74C2084.22 379.758 2076.82 386.017 2069.62 391.517C2062.41 396.827 2054.82 401.379 2046.86 405.172C2038.89 408.776 2030.36 411.526 2021.25 413.422C2012.34 415.509 2002.38 416.552 1991.38 416.552C1980.19 416.552 1969.67 415.035 1959.8 412C1949.94 408.776 1941.31 404.034 1933.92 397.776C1926.71 391.517 1920.92 383.646 1916.56 374.163C1912.39 364.49 1910.3 353.111 1910.3 340.024C1910.3 328.645 1913.43 317.739 1919.69 307.308C1925.95 296.687 1936.1 287.299 1950.13 279.143C1964.17 270.988 1982.47 264.35 2005.04 259.229C2027.61 253.919 2055.3 250.884 2088.11 250.125V227.651C2088.11 205.271 2083.27 188.391 2073.6 177.012C2063.93 165.442 2049.8 159.658 2031.21 159.658C2018.69 159.658 2008.17 161.27 1999.63 164.494C1991.29 167.529 1983.99 171.037 1977.73 175.02C1971.66 178.813 1966.35 182.322 1961.8 185.546C1957.43 188.581 1953.07 190.098 1948.71 190.098C1945.3 190.098 1942.36 189.245 1939.89 187.538C1937.42 185.641 1935.34 183.365 1933.63 180.71L1924.53 164.494ZM2265.67 -7.05305V239.599H2278.76C2282.55 239.599 2285.68 239.125 2288.14 238.177C2290.8 237.039 2293.55 234.858 2296.4 231.634L2387.43 134.054C2390.09 130.83 2392.84 128.364 2395.68 126.657C2398.72 124.76 2402.7 123.812 2407.63 123.812H2453.43L2347.32 236.754C2342.2 243.203 2336.7 248.229 2330.82 251.832C2334.23 254.108 2337.27 256.764 2339.92 259.798C2342.77 262.643 2345.42 265.962 2347.89 269.755L2460.55 412H2415.31C2410.95 412 2407.16 411.336 2403.93 410.009C2400.9 408.491 2398.24 405.836 2395.97 402.043L2301.23 283.98C2298.39 279.997 2295.54 277.436 2292.7 276.298C2290.04 274.971 2285.87 274.307 2280.18 274.307H2265.67V412H2214.75V-7.05305H2265.67ZM2790.16 327.791C2793.19 327.791 2795.85 329.024 2798.12 331.489L2820.03 355.102C2803.34 374.447 2783.05 389.525 2759.15 400.336C2735.44 411.147 2706.71 416.552 2672.95 416.552C2643.74 416.552 2617.19 411.526 2593.29 401.474C2569.39 391.232 2549.01 377.008 2532.13 358.8C2515.25 340.403 2502.16 318.403 2492.87 292.799C2483.57 267.195 2478.93 239.03 2478.93 208.306C2478.93 177.581 2483.76 149.416 2493.44 123.812C2503.11 98.2081 2516.67 76.2076 2534.12 57.8106C2551.76 39.4136 2572.81 25.1891 2597.27 15.1371C2621.74 4.89549 2648.77 -0.225323 2678.35 -0.225323C2707.37 -0.225323 2732.98 4.42134 2755.17 13.7147C2777.36 23.008 2796.89 35.6204 2813.77 51.5518L2795.56 76.8713C2794.43 78.7679 2792.91 80.38 2791.01 81.7077C2789.3 82.8456 2786.93 83.4146 2783.9 83.4146C2780.49 83.4146 2776.31 81.6128 2771.38 78.0093C2766.45 74.2161 2760 70.0436 2752.04 65.4918C2744.07 60.9399 2734.11 56.8622 2722.16 53.2587C2710.22 49.4655 2695.52 47.5689 2678.07 47.5689C2657.02 47.5689 2637.77 51.2673 2620.32 58.664C2602.87 65.8711 2587.79 76.3972 2575.08 90.2424C2562.57 104.088 2552.8 120.967 2545.78 140.881C2538.76 160.796 2535.26 183.27 2535.26 208.306C2535.26 233.72 2538.86 256.384 2546.07 276.298C2553.46 296.213 2563.42 313.092 2575.94 326.938C2588.64 340.593 2603.53 351.024 2620.6 358.231C2637.86 365.439 2656.45 369.042 2676.36 369.042C2688.5 369.042 2699.41 368.378 2709.08 367.051C2718.94 365.533 2727.95 363.257 2736.1 360.223C2744.45 357.188 2752.13 353.395 2759.15 348.843C2766.36 344.102 2773.47 338.507 2780.49 332.058C2783.71 329.214 2786.93 327.791 2790.16 327.791ZM3252.91 208.306C3252.91 238.841 3248.07 266.91 3238.4 292.514C3228.73 317.929 3215.07 339.834 3197.43 358.231C3179.79 376.628 3158.55 390.948 3133.71 401.189C3109.05 411.241 3081.74 416.267 3051.77 416.267C3021.81 416.267 2994.5 411.241 2969.84 401.189C2945.18 390.948 2924.04 376.628 2906.4 358.231C2888.76 339.834 2875.1 317.929 2865.43 292.514C2855.76 266.91 2850.92 238.841 2850.92 208.306C2850.92 177.77 2855.76 149.795 2865.43 124.381C2875.1 98.777 2888.76 76.7765 2906.4 58.3795C2924.04 39.7929 2945.18 25.3787 2969.84 15.1371C2994.5 4.89549 3021.81 -0.225323 3051.77 -0.225323C3081.74 -0.225323 3109.05 4.89549 3133.71 15.1371C3158.55 25.3787 3179.79 39.7929 3197.43 58.3795C3215.07 76.7765 3228.73 98.777 3238.4 124.381C3248.07 149.795 3252.91 177.77 3252.91 208.306ZM3196.29 208.306C3196.29 183.27 3192.88 160.796 3186.05 140.881C3179.22 120.967 3169.55 104.182 3157.03 90.5269C3144.52 76.6817 3129.34 66.0607 3111.52 58.664C3093.69 51.2673 3073.77 47.5689 3051.77 47.5689C3029.96 47.5689 3010.14 51.2673 2992.31 58.664C2974.49 66.0607 2959.22 76.6817 2946.51 90.5269C2933.99 104.182 2924.32 120.967 2917.49 140.881C2910.67 160.796 2907.25 183.27 2907.25 208.306C2907.25 233.341 2910.67 255.815 2917.49 275.73C2924.32 295.454 2933.99 312.239 2946.51 326.084C2959.22 339.74 2974.49 350.266 2992.31 357.663C3010.14 364.87 3029.96 368.473 3051.77 368.473C3073.77 368.473 3093.69 364.87 3111.52 357.663C3129.34 350.266 3144.52 339.74 3157.03 326.084C3169.55 312.239 3179.22 295.454 3186.05 275.73C3192.88 255.815 3196.29 233.341 3196.29 208.306ZM3685.21 208.306C3685.21 238.841 3680.37 266.626 3670.7 291.661C3661.02 316.696 3647.37 338.128 3629.73 355.956C3612.09 373.784 3590.85 387.629 3566.01 397.491C3541.35 407.164 3514.04 412 3484.07 412H3331.87V4.32652H3484.07C3514.04 4.32652 3541.35 9.25767 3566.01 19.12C3590.85 28.7926 3612.09 42.6378 3629.73 60.6555C3647.37 78.4835 3661.02 99.915 3670.7 124.95C3680.37 149.985 3685.21 177.77 3685.21 208.306ZM3628.59 208.306C3628.59 183.27 3625.18 160.891 3618.35 141.166C3611.52 121.441 3601.85 104.751 3589.33 91.0958C3576.82 77.4403 3561.64 67.0091 3543.81 59.802C3525.99 52.5949 3506.07 48.9914 3484.07 48.9914H3387.06V367.335H3484.07C3506.07 367.335 3525.99 363.732 3543.81 356.525C3561.64 349.317 3576.82 338.981 3589.33 325.515C3601.85 311.86 3611.52 295.17 3618.35 275.445C3625.18 255.72 3628.59 233.341 3628.59 208.306ZM4016.21 367.051L4015.92 412H3764.72V4.32652H4015.92V49.2759H3819.91V184.693H3978.65V227.935H3819.91V367.051H4016.21Z" fill="currentColor"/>
<rect x="2266" y="412" width="206" height="206" fill="currentColor"/>
</g>
<defs>
<clipPath id="clip0_880_4509">
<rect width="4017" height="418" fill="currentColor"/>
</clipPath>
</defs>
</svg>
